<?xml version="1.0" standalone="no"?>
<!DOCTYPE svg PUBLIC "-//W3C//DTD SVG 20010904//EN"
 "http://www.w3.org/TR/2001/REC-SVG-20010904/DTD/svg10.dtd">
<svg version="1.0" xmlns="http://www.w3.org/2000/svg"
 width="1080.000000pt" height="1080.000000pt" viewBox="0 0 1080.000000 1080.000000"
 preserveAspectRatio="xMidYMid meet">

<g transform="translate(0.000000,1080.000000) scale(0.100000,-0.100000)"
fill="#000000" stroke="none">
<path d="M4244 8548 c3 -29 10 -215 17 -413 l11 -360 -100 -226 -101 -225 -65
-459 c-36 -252 -65 -459 -63 -460 200 -122 869 -544 885 -559 13 -11 101 -149
195 -306 l172 -285 3 310 3 310 -66 61 -67 61 -5 140 -6 141 -358 194 -358
193 -80 223 c-45 123 -81 227 -81 232 0 6 7 10 16 10 9 0 223 -104 474 -231
l458 -231 134 -183 c73 -100 136 -181 140 -179 4 2 66 85 139 184 l132 180
458 230 c252 127 465 230 473 230 9 0 16 -3 16 -7 0 -14 -153 -437 -162 -450
-5 -6 -168 -97 -362 -203 l-353 -190 -7 -141 -6 -141 -71 -67 -70 -66 3 -312
3 -312 170 282 c94 155 184 296 200 314 17 17 219 149 450 293 231 144 425
267 431 274 9 8 -5 125 -55 471 l-67 460 -100 225 -100 225 16 405 c9 223 15
406 14 408 -1 2 -120 -134 -265 -302 -167 -194 -271 -306 -282 -306 -10 0
-151 42 -313 94 l-295 95 -294 -95 c-161 -52 -302 -94 -312 -94 -13 0 -112
108 -282 305 -145 168 -266 305 -268 305 -3 0 -3 -24 1 -52z"/>
<path d="M1351 6536 c2 -2 287 -267 632 -588 l628 -584 317 -69 c174 -37 328
-73 342 -79 41 -20 1365 -1047 1368 -1062 3 -12 -141 -14 -1002 -14 l-1006 0
0 -530 0 -530 1098 0 1098 0 22 -177 23 -177 53 -60 c200 -228 468 -521 475
-521 5 0 118 122 251 270 133 149 250 279 260 290 14 15 24 63 41 198 l23 177
1103 0 1103 0 0 530 0 530 -1011 0 c-871 0 -1010 2 -1007 14 3 14 1338 1052
1367 1064 7 3 159 37 337 76 l323 71 601 560 c331 308 616 572 633 587 l32 27
-696 1 -696 0 -1319 -1042 c-725 -573 -1328 -1043 -1339 -1045 -15 -3 -375
275 -1344 1041 l-1325 1046 -694 0 c-383 0 -693 -2 -691 -4z m2127 -2738 l-3
-83 -207 -3 c-176 -2 -208 -5 -208 -17 0 -13 25 -15 153 -15 128 0 159 -3 194
-20 60 -27 83 -69 83 -149 0 -77 -21 -117 -79 -149 -38 -22 -47 -22 -293 -20
l-253 3 -3 255 c-1 140 0 260 3 267 3 10 73 13 310 13 l306 0 -3 -82z m567 63
c133 -60 142 -247 17 -329 -21 -14 -57 -18 -181 -22 l-156 -5 -5 -80 -5 -80
-92 -3 -93 -3 0 271 0 270 238 0 c208 0 242 -3 277 -19z m701 -7 c64 -47 69
-62 72 -230 4 -141 2 -158 -18 -199 -39 -81 -55 -85 -304 -85 l-216 0 -40 36
c-51 46 -60 81 -60 234 1 167 19 217 93 254 27 14 66 16 239 14 191 -3 209 -5
234 -24z m292 -67 l3 -88 112 3 112 3 3 88 3 87 89 0 90 0 0 -270 0 -270 -90
0 -90 0 0 85 0 85 -115 0 -115 0 0 -85 0 -85 -95 0 -95 0 0 263 c0 145 3 267
7 271 4 4 46 5 93 4 l85 -3 3 -88z m1017 8 l0 -80 -192 -3 c-161 -2 -193 -5
-193 -17 0 -12 32 -15 193 -17 l192 -3 0 -65 0 -65 -190 -5 c-160 -4 -190 -7
-190 -20 0 -13 30 -16 190 -20 l190 -5 0 -75 0 -75 -282 -3 -283 -2 0 270 0
270 283 -2 282 -3 0 -80z m640 0 l0 -80 -100 -5 -100 -5 -3 -182 -2 -183 -95
0 -95 0 -2 183 -3 182 -102 3 -103 3 0 78 c0 43 3 81 7 84 4 4 140 6 302 5
l296 -3 0 -80z m600 0 l0 -80 -187 -3 c-157 -2 -188 -5 -188 -17 0 -12 31 -15
188 -17 l187 -3 3 -67 3 -68 -191 0 c-183 0 -190 -1 -190 -20 0 -19 8 -20 188
-22 l187 -3 3 -77 3 -78 -286 0 -285 0 0 270 0 270 283 -2 282 -3 0 -80z m223
-7 l3 -88 32 1 c28 0 41 12 105 90 l74 89 109 0 c60 0 109 -3 109 -7 0 -5 -47
-64 -105 -133 -58 -69 -105 -129 -105 -133 0 -5 47 -64 105 -132 58 -68 105
-126 105 -129 0 -3 -49 -6 -110 -6 l-110 0 -72 85 c-108 128 -138 128 -138 -1
l0 -84 -95 0 -95 0 0 263 c0 145 3 267 7 271 4 4 46 5 93 4 l85 -3 3 -87z"/>
<path d="M3060 3510 c0 -19 7 -20 114 -20 74 0 117 4 122 11 13 21 -21 29
-128 29 -101 0 -108 -1 -108 -20z"/>
<path d="M3727 3703 c-4 -3 -7 -12 -7 -20 0 -10 25 -13 108 -13 114 0 150 9
114 29 -22 12 -204 15 -215 4z"/>
<path d="M4388 3689 c-14 -8 -18 -24 -18 -77 0 -40 5 -73 12 -80 13 -13 202
-17 232 -6 13 5 16 22 16 78 0 43 -5 77 -12 84 -15 15 -205 16 -230 1z"/>
</g>
</svg>
